<svg xmlns="http://www.w3.org/2000/svg" width="31.019" height="31.019" viewBox="0 0 31.019 31.019">
  <g id="iconfinder_eye-off_2561429_1_" data-name="iconfinder_eye-off_2561429 (1)" transform="translate(2.121 2.121)">
    <path id="Path_7" data-name="Path 7" d="M21.711,21.043a12.312,12.312,0,0,1-7.262,2.519C5.89,23.562,1,13.781,1,13.781A22.557,22.557,0,0,1,7.186,6.519m4.695-2.225A11.15,11.15,0,0,1,14.449,4C23.007,4,27.9,13.781,27.9,13.781a22.619,22.619,0,0,1-2.641,3.9m-8.216-1.308a3.668,3.668,0,1,1-5.184-5.184" transform="translate(-1 -0.332)" fill="none" stroke="#8a8a8c" stroke-linecap="round" stroke-linejoin="round" stroke-width="3"/>
    <line id="Line_7" data-name="Line 7" x2="26.777" y2="26.777" transform="translate(0 0)" fill="none" stroke="#8a8a8c" stroke-linecap="round" stroke-linejoin="round" stroke-width="3"/>
  </g>
</svg>
