<svg width="471" height="335" viewBox="0 0 471 335" fill="none" xmlns="http://www.w3.org/2000/svg">
<path opacity="0.3" d="M235.716 334.896C365.466 334.896 470.648 322.952 470.648 308.218C470.648 293.484 365.466 281.54 235.716 281.54C105.967 281.54 0.78418 293.484 0.78418 308.218C0.78418 322.952 105.967 334.896 235.716 334.896Z" fill="#989898"/>
<path d="M72.5576 148.445C72.5576 148.445 37.6501 165.177 33.0956 203.732C28.5412 242.287 15.679 316.74 110.373 312.494C205.067 308.248 249.721 302.962 227.394 230.558C205.067 158.154 72.5576 148.445 72.5576 148.445Z" fill="#FFD200"/>
<path opacity="0.09" d="M68.9821 168.472C68.0032 173.913 68.6806 179.523 70.9265 184.574C73.1724 189.625 76.8831 193.884 81.5773 196.799C94.4247 205.276 114.215 235.398 129.54 250.63C131.931 253.003 133.821 255.834 135.095 258.953C136.37 262.073 137.003 265.417 136.958 268.787C136.958 271.533 138.07 274.577 141.69 277.546C152.342 286.261 197.041 290.611 222.038 263.799C247.036 236.987 214.072 223.714 214.072 223.714L104.201 164.197L68.9821 168.472Z" fill="black"/>
<path d="M311.851 299.726C311.851 299.726 314.18 305.664 320.025 306.941C325.871 308.218 329.045 315.463 316.272 314.364C303.499 313.266 296.482 315.196 298.321 308.173C300.161 301.151 299.33 300.097 299.33 300.097L311.851 299.726Z" fill="#F4A28C"/>
<path d="M226.074 294.782C226.074 294.782 225.094 301.033 229.441 305.175C233.788 309.317 232.868 317.051 222.469 309.628C212.069 302.205 205.022 300.261 210.17 295.154C215.318 290.046 215.14 288.71 215.14 288.71L226.074 294.782Z" fill="#F4A28C"/>
<path d="M237.229 205.929C237.229 205.929 315.337 206.731 314.581 299.949L296.155 303.081C296.155 303.081 292.61 204.637 191.106 251.536L196.403 212.758L237.229 205.929Z" fill="#24285B"/>
<path opacity="0.09" d="M237.229 205.929C237.229 205.929 315.337 206.731 314.581 299.949L296.155 303.081C296.155 303.081 292.61 204.637 191.106 251.536L196.403 212.758L237.229 205.929Z" fill="black"/>
<path d="M243.356 120.119L250.136 121.93L245.315 116.734L243.356 120.119Z" fill="#FFD200"/>
<path d="M136.809 166.26C136.809 166.26 150.309 200.406 183.258 194.394C216.208 188.381 228.729 119.213 228.729 119.213C228.729 119.213 241.754 110.736 235.449 101.279C229.144 91.8225 218.893 112.28 218.893 112.28C218.893 112.28 204.696 170.566 173.972 151.667L136.809 166.26Z" fill="#F4A28C"/>
<path opacity="0.09" d="M136.809 166.26C136.809 166.26 150.309 200.406 183.258 194.394C216.208 188.381 228.729 119.213 228.729 119.213C228.729 119.213 241.754 110.736 235.449 101.279C229.144 91.8225 218.893 112.28 218.893 112.28C218.893 112.28 204.696 170.566 173.972 151.667L136.809 166.26Z" fill="black"/>
<path d="M137.225 96.8999L144.346 98.3845C144.346 98.3845 199.385 128.284 189.148 158.229C178.912 188.173 201.269 216.603 201.269 216.603L153.41 250.333C153.41 250.333 90.8941 219.29 100.255 133.777C100.255 133.777 104.602 93.9455 137.225 96.8999Z" fill="#689501"/>
<path d="M263.707 113.805L254.683 109.462L217.633 186.569L226.658 190.912L263.707 113.805Z" fill="#E6E6E6"/>
<path opacity="0.58" d="M391.517 293.52C391.517 293.52 376.326 289.364 373.018 275.215C373.018 275.215 396.561 270.45 397.229 294.767L391.517 293.52Z" fill="#689501"/>
<path opacity="0.73" d="M393.342 292.036C393.342 292.036 382.72 275.245 392.066 259.538C392.066 259.538 409.972 270.91 402.02 292.08L393.342 292.036Z" fill="#689501"/>
<path d="M396.071 292.036C396.071 292.036 401.679 274.295 418.636 270.94C418.636 270.94 421.825 282.46 407.658 292.08L396.071 292.036Z" fill="#689501"/>
<path d="M385.049 291.605L388.135 312.701L407.539 312.776L410.402 291.709L385.049 291.605Z" fill="#24285B"/>
<path opacity="0.66" d="M358.568 0H250.893V75.4474H358.568V0Z" fill="#EBEBEB"/>
<path opacity="0.43" d="M455.175 105.689H357.93V173.832H455.175V105.689Z" fill="#E6E6E6"/>
<path d="M279.303 35.0662C286.243 35.0662 291.868 29.4364 291.868 22.4917C291.868 15.5469 286.243 9.91711 279.303 9.91711C272.363 9.91711 266.737 15.5469 266.737 22.4917C266.737 29.4364 272.363 35.0662 279.303 35.0662Z" fill="#E6E6E6"/>
<path opacity="0.45" d="M342.635 11.8174H307.252V61.0022H342.635V11.8174Z" fill="#C1C1C1"/>
<path d="M293.204 44.5083H268.903V61.0022H293.204V44.5083Z" fill="#C1C1C1"/>
<path d="M134.614 59.3395L124.704 94.3018L144.346 98.3845L143.678 71.3054L134.614 59.3395Z" fill="#F4A28C"/>
<path opacity="0.31" d="M144.079 77.2289C141.695 76.2985 139.633 74.6943 138.145 72.6118C138.145 72.6118 137.64 79.248 144.079 86.6265V77.2289Z" fill="#CE8172"/>
<path d="M154.953 60.4381C154.953 60.4381 153.974 71.4835 150.858 78.3869C150.558 79.0599 150.126 79.6662 149.588 80.1704C149.051 80.6747 148.419 81.0668 147.728 81.3238C147.038 81.5809 146.303 81.6977 145.567 81.6676C144.831 81.6375 144.108 81.4609 143.441 81.1483C139.984 79.5301 135.786 76.3382 135.593 70.3552L134.02 60.2451C133.921 58.1871 134.461 56.1488 135.566 54.4103C136.671 52.6718 138.287 51.3183 140.192 50.5358C147.164 47.0767 155.888 53.6683 154.953 60.4381Z" fill="#F4A28C"/>
<path d="M141.705 67.6532C141.705 67.6532 142.373 63.4369 139.154 63.1994C135.934 62.9619 134.94 69.0487 139.154 70.37L141.705 67.6532Z" fill="#F4A28C"/>
<path d="M153.974 67.2821L156.273 72.0328C156.403 72.3031 156.463 72.6018 156.447 72.9013C156.43 73.2008 156.339 73.4913 156.181 73.7459C156.022 74.0006 155.802 74.2111 155.541 74.358C155.28 74.5049 154.986 74.5835 154.686 74.5863H150.384L153.974 67.2821Z" fill="#F4A28C"/>
<path d="M245.322 116.732L211.43 97.1501L209.479 100.532L243.371 120.113L245.322 116.732Z" fill="#24285B"/>
<path opacity="0.18" d="M164.388 231.761L153.41 250.333C153.41 250.333 113.607 231.034 102.198 178.805C90.7899 126.577 128.427 146.931 128.427 146.931L164.388 231.761Z" fill="black"/>
<path d="M153.41 250.333C153.41 250.333 190.291 175.094 244.825 175.376C299.36 175.658 228.507 296.787 228.507 296.787L210.526 289.467C210.526 289.467 237.23 237.506 230.435 220.775C223.641 204.044 213.256 319.456 153.41 250.333Z" fill="#24285B"/>
<path d="M121.855 101.116C121.855 101.116 138.263 92.7876 146.601 109.712C154.938 126.636 148.366 199.426 182.206 203.242C216.045 207.057 233.209 171.783 233.209 171.783C233.209 171.783 235.998 156.937 240.627 154.473C245.256 152.008 249.335 167.611 240.627 176.742C240.627 176.742 225.703 232.845 178.319 234.107C130.935 235.369 75.139 139.538 121.855 101.116Z" fill="#F4A28C"/>
<path d="M155.027 46.0375C155.027 46.0375 165.812 58.7308 151.852 61.3882C137.892 64.0457 135.014 66.5546 136.349 80.688C137.684 94.8214 143.218 107.841 124.703 116.704C106.189 125.568 122.107 140.458 118.695 157.828C115.283 175.198 99.0087 187.193 78.1651 175.346C57.3214 163.499 44.4592 133.184 66.8012 115.027C89.1432 96.8702 117.241 92.4609 117.241 63.1846C117.241 33.9083 140.592 32.394 155.027 46.0375Z" fill="#24285B"/>
<path opacity="0.43" d="M388.832 155.631C397.14 155.631 403.875 148.891 403.875 140.577C403.875 132.263 397.14 125.523 388.832 125.523C380.524 125.523 373.789 132.263 373.789 140.577C373.789 148.891 380.524 155.631 388.832 155.631Z" fill="#C1C1C1"/>
<path opacity="0.43" d="M413.177 117.506H387.022V143.68H413.177V117.506Z" fill="#C1C1C1"/>
<path opacity="0.43" d="M441.23 117.506H421.722V160.886H441.23V117.506Z" fill="#C1C1C1"/>
<path d="M244.226 175.758L230.405 170.485L227.43 178.295L241.25 183.568L244.226 175.758Z" fill="#68E1FD"/>
<path opacity="0.44" d="M244.226 175.758L230.405 170.485L227.43 178.295L241.25 183.568L244.226 175.758Z" fill="white"/>
</svg>
